Coordinates
version=1
nRows=9
nColumns=24
inDegrees=yes

Units are S.I. units (second, meters, Newtons, ...)
Angles are in degrees.

endheader
time	pelvis_tilt	pelvis_list	pelvis_rotation	pelvis_tx	pelvis_ty	pelvis_tz	hip_flexion_r	hip_adduction_r	hip_rotation_r	knee_angle_r	ankle_angle_r	subtalar_angle_r	mtp_angle_r	hip_flexion_l	hip_adduction_l	hip_rotation_l	knee_angle_l	ankle_angle_l	subtalar_angle_l	mtp_angle_l	lumbar_extension	lumbar_bending	lumbar_rotation
      4.18500000	     -4.04842972	      3.40751590	      4.60669422	     -0.32384438	     -0.03825071	     -0.12826370	     35.90523328	     -3.99340733	     -0.58737099	    -18.82379144	     -0.35885107	      9.37974387	     10.06719591	    -11.10562180	      7.03280523	      3.57523922	    -22.00013061	     14.67942117	     18.35539251	     -3.82394267	      2.42771172	     -5.53013174	     -9.68741939
      4.19000000	     -4.19692730	      3.10014906	      4.59580245	     -0.31602006	     -0.03868315	     -0.12742825	     36.02141093	     -3.54653433	     -0.62734799	    -19.62919261	     -0.99798919	      9.19516864	      9.98683590	    -10.80032062	      6.53364451	      3.19581519	    -23.21217324	     14.05487733	     19.04901061	     -3.34287425	      2.77999453	     -5.18965252	     -9.60578266
      4.19500000	     -4.21005882	      2.77877781	      4.47445686	     -0.30818748	     -0.03889883	     -0.12636756	     35.95887693	     -2.96275156	     -0.31383073	    -20.31735701	     -2.03654607	      8.51821910	     10.41898277	    -10.68717291	      5.99505839	      2.64773037	    -24.05145334	     12.25248589	     19.27419754	      1.12833668	      2.98271273	     -4.82784260	     -9.40366462
      4.20000000	     -4.33401766	      2.44719591	      4.27452419	     -0.30026117	     -0.03922286	     -0.12523903	     36.06323002	     -2.30741139	      0.15295770	    -21.14888609	     -2.83115959	      7.98175012	     10.08493574	    -10.37437205	      5.47236919	      2.08371143	    -25.20356610	     11.03209761	     19.76241363	      2.82015195	      3.33529694	     -4.43442612	     -9.06853813
      4.20500000	     -4.43924528	      2.03993864	      4.19517050	     -0.29232326	     -0.03936410	     -0.12425834	     36.09733497	     -1.67115220	      0.44217518	    -21.92969359	     -3.56148830	      7.69808041	      9.97271831	    -10.02425299	      4.81600785	      1.52368225	    -26.29058830	      9.23083931	     20.16967571	      6.45843037	      3.65947503	     -3.97943484	     -8.96888401
      4.21000000	     -4.57914493	      1.67405353	      3.98963609	     -0.28443839	     -0.03955872	     -0.12307161	     36.22016748	     -0.96101257	      0.94082375	    -22.78273489	     -4.34061264	      7.18830320	      9.57432127	     -9.58051633	      4.22611980	      0.92857661	    -27.53609929	      7.56835397	     20.58089171	      8.75767598	      4.01195752	     -3.55844379	     -8.61989797
      4.21500000	     -4.68630245	      1.28104077	      3.86662703	     -0.27651333	     -0.03962824	     -0.12198466	     36.27492099	     -0.30051999	      1.28276428	    -23.63097639	     -4.85744451	      7.05459406	      9.28604546	     -9.12776177	      3.54796527	      0.30075054	    -28.72559710	      5.44280115	     21.01982242	     12.37917971	      4.32906096	     -3.12481528	     -8.46813028
      4.22000000	     -4.83469383	      0.90404133	      3.65971576	     -0.26863212	     -0.03974265	     -0.12078256	     36.37140146	      0.43292273	      1.84314246	    -24.45842427	     -5.51847886	      6.55693762	      8.89128462	     -8.57232097	      2.91870576	     -0.28385766	    -30.06472834	      3.38736897	     21.30571192	     14.71267581	      4.68148763	     -2.69709072	     -8.18052263
      4.22500000	     -4.94971504	      0.49511281	      3.49938734	     -0.26063024	     -0.03978393	     -0.11964506	     36.38085347	      1.13543454	      2.24700907	    -25.24470895	     -5.87599206	      6.40953267	      8.67011729	     -8.02753202	      2.20221296	     -0.90731122	    -31.34363624	      0.95804919	     21.62720912	     17.92016787	      5.02293933	     -2.24459249	     -8.00953791
